<svg id="Capa_1" enable-background="new 0 0 512 512" height="512" viewBox="0 0 512 512" width="512" xmlns="http://www.w3.org/2000/svg"><g><g><path d="m399.422 276.967c20.908 14.324 10.267 47.073-15.067 46.372-17.854-.494-30.635 17.097-24.648 33.925 8.495 23.878-19.363 44.118-39.447 28.66-14.154-10.894-34.834-4.175-39.881 12.958-7.162 24.311-41.597 24.311-48.759 0-5.047-17.133-25.727-23.852-39.881-12.958-20.084 15.458-47.942-4.782-39.447-28.66 5.987-16.828-6.794-34.419-24.648-33.925-25.334.701-35.975-32.048-15.067-46.372 14.735-10.095 14.735-31.839 0-41.933-20.908-14.324-10.267-47.073 15.067-46.372 17.854.494 30.635-17.097 24.648-33.925-8.495-23.878 19.363-44.118 39.447-28.66 14.154 10.894 34.834 4.175 39.881-12.958 7.162-24.311 41.597-24.311 48.759 0 5.047 17.133 25.727 23.852 39.881 12.958 20.084-15.458 47.942 4.782 39.447 28.66-5.987 16.828 6.794 34.419 24.648 33.925 25.334-.701 35.975 32.048 15.067 46.372-14.735 10.094-14.735 31.838 0 41.933z" fill="#b3f2d7"/></g><g><path d="m194.191 256c0-62.067 34.856-115.986 86.056-143.273-7.421-23.909-41.504-23.785-48.626.391-5.047 17.133-25.727 23.852-39.881 12.958-20.084-15.458-47.942 4.782-39.446 28.659 5.987 16.827-6.794 34.419-24.648 33.925-25.334-.701-35.975 32.048-15.067 46.372 14.735 10.095 14.735 31.839 0 41.933-20.908 14.324-10.267 47.073 15.067 46.372 17.854-.494 30.635 17.097 24.648 33.925-8.495 23.878 19.363 44.118 39.446 28.66 14.154-10.894 34.834-4.175 39.881 12.958 7.122 24.176 41.205 24.3 48.626.391-51.2-27.285-86.056-81.204-86.056-143.271z" fill="#95e8c8"/></g><g><circle cx="432.275" cy="69.681" fill="#b3f2d7" r="51.509"/></g><g><path d="m432.275 69.681c0-19.062 10.363-35.694 25.755-44.601-7.578-4.386-16.369-6.908-25.755-6.908-28.448 0-51.509 23.061-51.509 51.509s23.061 51.509 51.509 51.509c9.385 0 18.176-2.523 25.755-6.908-15.392-8.908-25.755-25.539-25.755-44.601z" fill="#95e8c8"/></g><g><circle cx="112.899" cy="460.491" fill="#b3f2d7" r="51.509"/></g><g><path d="m112.899 460.491c0-19.062 10.363-35.694 25.755-44.601-7.578-4.386-16.369-6.908-25.755-6.908-28.448 0-51.509 23.061-51.509 51.509s23.061 51.509 51.509 51.509c9.385 0 18.176-2.523 25.755-6.908-15.392-8.907-25.755-25.539-25.755-44.601z" fill="#95e8c8"/></g><g><circle cx="51.509" cy="117.077" fill="#b3f2d7" r="51.509"/></g><g><path d="m51.509 117.077c0-19.062 10.363-35.694 25.755-44.601-7.578-4.386-16.369-6.908-25.755-6.908-28.448 0-51.509 23.062-51.509 51.509s23.061 51.509 51.509 51.509c9.385 0 18.176-2.523 25.755-6.908-15.392-8.907-25.755-25.539-25.755-44.601z" fill="#95e8c8"/></g><g><circle cx="143.805" cy="30.905" fill="#b3f2d7" r="30.905"/></g><g><path d="m143.805 30.905c0-11.437 6.218-21.416 15.453-26.761-4.547-2.63-9.822-4.144-15.453-4.144-17.069 0-30.905 13.837-30.905 30.905s13.837 30.905 30.905 30.905c5.631 0 10.906-1.514 15.453-4.145-9.235-5.343-15.453-15.322-15.453-26.76z" fill="#95e8c8"/></g><g><circle cx="481.095" cy="256" fill="#b3f2d7" r="30.905"/></g><g><circle cx="293.565" cy="326.491" fill="#95e8c8" r="20.604"/></g><g><circle cx="300.85" cy="189.19" fill="#95e8c8" r="20.604"/></g><g><circle cx="225.178" cy="170.78" fill="#95e8c8" r="15.453"/></g><g><path d="m481.095 256c0-11.437 6.218-21.416 15.453-26.761-4.547-2.631-9.821-4.145-15.453-4.145-17.069 0-30.905 13.837-30.905 30.905s13.837 30.905 30.905 30.905c5.631 0 10.906-1.514 15.453-4.145-9.236-5.343-15.453-15.322-15.453-26.759z" fill="#95e8c8"/></g><g><circle cx="419.927" cy="441.804" fill="#b3f2d7" r="41.207"/></g><g><path d="m419.927 441.804c0-15.25 8.29-28.555 20.604-35.681-6.062-3.509-13.095-5.527-20.604-5.527-22.758 0-41.207 18.449-41.207 41.207s18.449 41.207 41.207 41.207c7.508 0 14.541-2.018 20.604-5.526-12.314-7.125-20.604-20.43-20.604-35.68z" fill="#95e8c8"/></g><g fill="#495560"><path d="m277.889 257.996c-3.124-2.722-7.86-2.396-10.582.727-2.854 3.276-6.976 5.155-11.307 5.155s-8.452-1.879-11.307-5.155c-2.723-3.123-7.46-3.447-10.582-.727-3.122 2.722-3.448 7.459-.727 10.582 5.704 6.546 13.947 10.3 22.615 10.3s16.911-3.754 22.615-10.3c2.723-3.123 2.397-7.86-.725-10.582z"/><path d="m205.787 240.021-24.791-6.643c-4.002-1.074-8.114 1.302-9.186 5.303s1.302 8.114 5.303 9.186l7.531 2.018c-.304.815-.478 1.693-.478 2.614v10.679c0 4.143 3.357 7.5 7.5 7.5s7.5-3.357 7.5-7.5v-9.401l2.737.733c.65.175 1.304.258 1.946.258 3.312 0 6.342-2.21 7.239-5.561 1.074-4.002-1.3-8.115-5.301-9.186z"/><path d="m340.189 238.681c-1.072-4.001-5.185-6.377-9.186-5.303l-24.791 6.643c-4.001 1.071-6.375 5.185-5.303 9.186.897 3.351 3.928 5.561 7.239 5.561.643 0 1.296-.083 1.946-.258l2.737-.733v9.401c0 4.143 3.357 7.5 7.5 7.5s7.5-3.357 7.5-7.5v-10.679c0-.921-.174-1.799-.478-2.614l7.531-2.018c4.004-1.072 6.378-5.185 5.305-9.186z"/></g></g></svg>